<?xml version="1.0" standalone="no"?>
<!DOCTYPE svg PUBLIC "-//W3C//DTD SVG 20010904//EN"
 "http://www.w3.org/TR/2001/REC-SVG-20010904/DTD/svg10.dtd">
<svg version="1.0" xmlns="http://www.w3.org/2000/svg"
 width="311.000000pt" height="311.000000pt" viewBox="0 0 311.000000 311.000000"
 preserveAspectRatio="xMidYMid meet">
<metadata>
Created by potrace 1.14, written by Peter Selinger 2001-2017
</metadata>
<g transform="translate(0.000000,311.000000) scale(0.100000,-0.100000)"
fill="#000000" stroke="none">
<path d="M187 3068 c-79 -17 -145 -73 -167 -142 -19 -58 -18 -1892 1 -1939 59
-146 242 -189 352 -82 74 71 69 7 70 1025 0 503 -3 938 -7 967 -16 110 -139
195 -249 171z"/>
<path d="M810 2209 c-67 -10 -152 -43 -203 -78 -49 -34 -121 -111 -143 -153
l-14 -28 47 30 c55 35 102 50 159 50 104 0 217 -70 249 -155 15 -39 18 -96 19
-462 2 -378 4 -421 20 -450 71 -131 236 -157 331 -52 20 22 41 52 47 67 13 33
19 811 7 879 -27 142 -138 268 -285 323 -66 24 -174 38 -234 29z"/>
<path d="M2863 2209 c-82 -15 -133 -55 -168 -131 -19 -43 -236 -630 -601
-1630 -30 -81 -54 -162 -54 -180 0 -122 97 -221 216 -220 64 0 135 31 169 76
13 17 78 180 144 361 67 182 128 346 136 365 7 19 37 100 65 180 29 80 56 154
61 165 4 11 17 45 28 75 10 30 72 199 136 375 102 278 116 326 113 366 -12
125 -129 219 -245 198z"/>
<path d="M1665 2192 c-95 -46 -148 -159 -120 -253 21 -70 316 -870 344 -933
50 -113 204 -156 311 -86 50 34 71 59 88 109 21 60 14 116 -29 234 -217 593
-311 840 -327 862 -9 12 -34 35 -55 50 -52 37 -152 45 -212 17z"/>
</g>
</svg>
